PathFileType	4	(X/Y/Z)	 2.2Hzlow3min.trc
DataRate	CameraRate	NumFrames	NumMarkers	Units	OrigDataRate	OrigDataStartFrame	OrigNumFrames
200	200	10	35	m	200	876	1000
Frame#	Time	C7			LSH			RSH			MAN			RASI			LASI			HIPR			HIPL			RPSI			LPSI			COX			RTHI1			RTHI2			RTHI3			RTHI4			RSHA1			RSHA2			RSHA3			RSHA4			RHEEL			RMET5			RMET1			RTOE			LTHI1			LTHI2			LTHI3			LTHI4			LSHA1			LSHA2			LSHA3			LSHA4			LHEEL			LMET5			LMET1			LTOE			
		X1	Y1	Z1	X2	Y2	Z2	X3	Y3	Z3	X4	Y4	Z4	X5	Y5	Z5	X6	Y6	Z6	X7	Y7	Z7	X8	Y8	Z8	X9	Y9	Z9	X10	Y10	Z10	X11	Y11	Z11	X12	Y12	Z12	X13	Y13	Z13	X14	Y14	Z14	X15	Y15	Z15	X16	Y16	Z16	X17	Y17	Z17	X18	Y18	Z18	X19	Y19	Z19	X20	Y20	Z20	X21	Y21	Z21	X22	Y22	Z22	X23	Y23	Z23	X24	Y24	Z24	X25	Y25	Z25	X26	Y26	Z26	X27	Y27	Z27	X28	Y28	Z28	X29	Y29	Z29	X30	Y30	Z30	X31	Y31	Z31	X32	Y32	Z32	X33	Y33	Z33	X34	Y34	Z34	X35	Y35	Z35	
876	4.3800	-0.000000	0.000000	-0.000000	-0.201714	1.329889	-0.729590	-0.220528	1.312730	-0.380771	-0.143368	1.281956	-0.552303	-0.139027	0.900270	-0.417766	-0.121425	0.893577	-0.648745	-0.204699	0.945645	-0.400061	-0.184414	0.926499	-0.687057	-0.296992	0.922537	-0.495251	-0.291296	0.916668	-0.599558	-0.295207	0.932266	-0.544564	-0.219414	0.696432	-0.374662	-0.194829	0.642167	-0.373548	-0.135837	0.666670	-0.361289	-0.153981	0.725356	-0.362065	-0.203768	0.335273	-0.373729	-0.226846	0.299240	-0.381303	-0.172670	0.275350	-0.395953	-0.154850	0.311304	-0.392357	-0.366673	0.086646	-0.457298	-0.228672	0.028679	-0.393076	-0.190343	0.037227	-0.463461	-0.161668	0.027806	-0.458404	-0.185825	0.681445	-0.714065	-0.155554	0.627852	-0.711647	-0.097048	0.654653	-0.707413	-0.118547	0.711337	-0.709477	-0.202974	0.298205	-0.708089	-0.225269	0.264563	-0.706511	-0.170677	0.237342	-0.690966	-0.154415	0.278302	-0.695379	-0.364395	0.067226	-0.652578	-0.215874	0.030030	-0.706528	-0.178810	0.037302	-0.639845	-0.151530	0.026289	-0.635831	
877	4.3850	-0.000000	0.000000	-0.000000	-0.201579	1.327077	-0.729562	-0.220534	1.309507	-0.380358	-0.143289	1.279185	-0.552222	-0.139235	0.897954	-0.417402	-0.121489	0.890897	-0.648843	-0.205975	0.942793	-0.400225	-0.185068	0.923045	-0.687503	-0.297137	0.920239	-0.495829	-0.291260	0.914225	-0.599743	-0.295260	0.930109	-0.545043	-0.219262	0.694119	-0.374951	-0.194460	0.639930	-0.373849	-0.135642	0.664650	-0.361188	-0.154014	0.723270	-0.361986	-0.202908	0.333984	-0.374238	-0.226131	0.298061	-0.381867	-0.172042	0.273895	-0.396219	-0.154031	0.309770	-0.392559	-0.366760	0.085863	-0.458240	-0.228886	0.028691	-0.393304	-0.190246	0.037224	-0.463528	-0.161513	0.027796	-0.458391	-0.186530	0.679142	-0.713778	-0.156208	0.625570	-0.711466	-0.097687	0.652410	-0.707713	-0.119237	0.709077	-0.709714	-0.202509	0.296380	-0.707486	-0.224932	0.262824	-0.705818	-0.170410	0.235435	-0.690349	-0.153986	0.276302	-0.694865	-0.364804	0.065842	-0.651292	-0.216262	0.030018	-0.706156	-0.178782	0.037279	-0.639720	-0.151468	0.026296	-0.635851	
878	4.3900	-0.000000	0.000000	-0.000000	-0.201403	1.324799	-0.729477	-0.220460	1.306879	-0.380024	-0.143171	1.276950	-0.552150	-0.139279	0.896183	-0.417215	-0.121486	0.888823	-0.648892	-0.206924	0.940800	-0.400441	-0.185554	0.920514	-0.687877	-0.297124	0.918626	-0.496289	-0.291131	0.912542	-0.599999	-0.295237	0.928471	-0.545478	-0.219000	0.692215	-0.375190	-0.194031	0.638112	-0.374093	-0.135330	0.663009	-0.361111	-0.153902	0.721580	-0.361973	-0.202159	0.333052	-0.374733	-0.225509	0.297240	-0.382389	-0.171510	0.272799	-0.396445	-0.153317	0.308600	-0.392728	-0.366767	0.085324	-0.459022	-0.229056	0.028710	-0.393490	-0.190156	0.037219	-0.463579	-0.161384	0.027785	-0.458382	-0.187127	0.677168	-0.713473	-0.156705	0.623642	-0.711225	-0.098198	0.650575	-0.707940	-0.119857	0.707199	-0.709902	-0.202067	0.295044	-0.706831	-0.224604	0.261553	-0.705092	-0.170147	0.233999	-0.689716	-0.153575	0.274810	-0.694291	-0.365090	0.064809	-0.650158	-0.216585	0.030034	-0.705785	-0.178737	0.037248	-0.639587	-0.151409	0.026299	-0.635858	
879	4.3950	-0.000000	0.000000	-0.000000	-0.201196	1.323065	-0.729358	-0.220286	1.304842	-0.379807	-0.143044	1.275199	-0.552096	-0.139148	0.894939	-0.417216	-0.121411	0.887351	-0.648901	-0.207500	0.939610	-0.400636	-0.185792	0.918964	-0.688169	-0.296983	0.917588	-0.496602	-0.290931	0.911516	-0.600284	-0.295153	0.927306	-0.545832	-0.218646	0.690772	-0.375407	-0.193562	0.636740	-0.374317	-0.134946	0.661751	-0.361111	-0.153659	0.720319	-0.362027	-0.201510	0.332451	-0.375168	-0.224975	0.296736	-0.382844	-0.171074	0.272047	-0.396643	-0.152706	0.307782	-0.392864	-0.366730	0.085016	-0.459611	-0.229177	0.028732	-0.393631	-0.190077	0.037213	-0.463615	-0.161282	0.027775	-0.458375	-0.187589	0.675571	-0.713176	-0.157041	0.622109	-0.710934	-0.098571	0.649161	-0.708087	-0.120357	0.705733	-0.710060	-0.201664	0.294151	-0.706146	-0.224294	0.260724	-0.704364	-0.169884	0.233029	-0.689083	-0.153197	0.273785	-0.693684	-0.365258	0.064132	-0.649225	-0.216834	0.030077	-0.705435	-0.178683	0.037216	-0.639458	-0.151352	0.026297	-0.635853	
880	4.4000	-0.000000	0.000000	-0.000000	-0.200983	1.321923	-0.729224	-0.220017	1.303406	-0.379653	-0.142913	1.273932	-0.552058	-0.138845	0.894203	-0.417397	-0.121269	0.886468	-0.648883	-0.207654	0.939179	-0.400806	-0.185738	0.918371	-0.688384	-0.296732	0.917041	-0.496761	-0.290686	0.911037	-0.600564	-0.294909	0.926591	-0.546037	-0.218219	0.689815	-0.375615	-0.193065	0.635839	-0.374512	-0.134489	0.660916	-0.361184	-0.153299	0.719494	-0.362147	-0.200960	0.332155	-0.375516	-0.224524	0.296523	-0.383206	-0.170708	0.271617	-0.396795	-0.152196	0.307297	-0.392985	-0.366657	0.084934	-0.460003	-0.229247	0.028753	-0.393727	-0.190012	0.037205	-0.463637	-0.161206	0.027766	-0.458372	-0.187897	0.674435	-0.712901	-0.157235	0.621033	-0.710614	-0.098804	0.648200	-0.708147	-0.120708	0.704721	-0.710176	-0.201292	0.293679	-0.705460	-0.223997	0.260304	-0.703661	-0.169636	0.232481	-0.688464	-0.152855	0.273210	-0.693071	-0.365320	0.063814	-0.648508	-0.217011	0.030139	-0.705114	-0.178627	0.037183	-0.639341	-0.151297	0.026287	-0.635839	
881	4.4050	-0.000000	0.000000	-0.000000	-0.200803	1.321392	-0.729081	-0.219660	1.302564	-0.379537	-0.142817	1.273153	-0.552051	-0.138385	0.893939	-0.417727	-0.121060	0.886155	-0.648865	-0.207367	0.939412	-0.400938	-0.185390	0.918658	-0.688531	-0.296390	0.916938	-0.496776	-0.290416	0.911029	-0.600790	-0.294614	0.926326	-0.546131	-0.217742	0.689361	-0.375816	-0.192566	0.635427	-0.374696	-0.134010	0.660522	-0.361355	-0.152849	0.719110	-0.362320	-0.200511	0.332160	-0.375759	-0.224163	0.296584	-0.383470	-0.170411	0.271507	-0.396911	-0.151788	0.307143	-0.393080	-0.366549	0.085072	-0.460191	-0.229268	0.028775	-0.393782	-0.189961	0.037195	-0.463643	-0.161157	0.027759	-0.458372	-0.188040	0.673820	-0.712668	-0.157303	0.620462	-0.710288	-0.098900	0.647698	-0.708103	-0.120881	0.704189	-0.710233	-0.200965	0.293609	-0.704812	-0.223725	0.260282	-0.703013	-0.169412	0.232341	-0.687857	-0.152558	0.273059	-0.692457	-0.365286	0.063842	-0.648011	-0.217116	0.030221	-0.704822	-0.178569	0.037153	-0.639236	-0.151251	0.026265	-0.635821	
882	4.4100	-0.000000	0.000000	-0.000000	-0.200675	1.321470	-0.728942	-0.219219	1.302326	-0.379457	-0.142748	1.272913	-0.552073	-0.137797	0.894123	-0.418167	-0.120790	0.886387	-0.648871	-0.206676	0.940186	-0.401031	-0.184793	0.919686	-0.688624	-0.295965	0.917250	-0.496668	-0.290131	0.911453	-0.600939	-0.294270	0.926490	-0.546113	-0.217234	0.689416	-0.376008	-0.192081	0.635499	-0.374895	-0.133521	0.660591	-0.361604	-0.152332	0.719168	-0.362541	-0.200172	0.332446	-0.375915	-0.223891	0.296912	-0.383633	-0.170178	0.271714	-0.396990	-0.151484	0.307316	-0.393148	-0.366408	0.085418	-0.460180	-0.229242	0.028798	-0.393797	-0.189923	0.037182	-0.463637	-0.161130	0.027752	-0.458376	-0.188012	0.673746	-0.712493	-0.157250	0.620407	-0.709980	-0.098856	0.647668	-0.707947	-0.120864	0.704143	-0.710220	-0.200687	0.293922	-0.704223	-0.223483	0.260631	-0.702436	-0.169217	0.232599	-0.687273	-0.152311	0.273326	-0.691836	-0.365165	0.064190	-0.647712	-0.217157	0.030323	-0.704556	-0.178512	0.037126	-0.639145	-0.151212	0.026234	-0.635798	
883	4.4150	-0.000000	0.000000	-0.000000	-0.200603	1.322144	-0.728818	-0.218741	1.302662	-0.379412	-0.142719	1.273243	-0.552116	-0.137111	0.894731	-0.418674	-0.120470	0.887140	-0.648925	-0.205653	0.941376	-0.401087	-0.184019	0.921312	-0.688670	-0.295464	0.917981	-0.496456	-0.289834	0.912303	-0.601026	-0.293991	0.927097	-0.546051	-0.216716	0.690003	-0.376209	-0.191619	0.636048	-0.375108	-0.133050	0.661110	-0.361955	-0.151764	0.719671	-0.362806	-0.199951	0.333014	-0.375984	-0.223710	0.297496	-0.383691	-0.170020	0.272245	-0.397036	-0.151291	0.307826	-0.393206	-0.366228	0.085974	-0.459976	-0.229169	0.028829	-0.393780	-0.189895	0.037169	-0.463618	-0.161125	0.027748	-0.458385	-0.187815	0.674202	-0.712385	-0.157082	0.620861	-0.709709	-0.098680	0.648104	-0.707679	-0.120660	0.704581	-0.710126	-0.200472	0.294590	-0.703708	-0.223278	0.261320	-0.701948	-0.169049	0.233253	-0.686731	-0.152119	0.273981	-0.691257	-0.364964	0.064834	-0.647583	-0.217140	0.030446	-0.704309	-0.178458	0.037102	-0.639065	-0.151183	0.026196	-0.635772	
884	4.4200	-0.000000	0.000000	-0.000000	-0.200597	1.323403	-0.728707	-0.218276	1.303561	-0.379371	-0.142717	1.274172	-0.552177	-0.136347	0.895752	-0.419220	-0.120108	0.888393	-0.649041	-0.204329	0.942936	-0.401162	-0.183149	0.923386	-0.688677	-0.294890	0.919127	-0.496166	-0.289522	0.913566	-0.601067	-0.293649	0.928135	-0.545907	-0.216194	0.691080	-0.376390	-0.191186	0.637075	-0.375309	-0.132582	0.662071	-0.362349	-0.151155	0.720611	-0.363108	-0.199862	0.333871	-0.375995	-0.223625	0.298355	-0.383648	-0.169944	0.273098	-0.397049	-0.151215	0.308688	-0.393248	-0.365997	0.086739	-0.459566	-0.229053	0.028869	-0.393736	-0.189873	0.037156	-0.463591	-0.161137	0.027747	-0.458398	-0.187465	0.675174	-0.712347	-0.156805	0.621810	-0.709487	-0.098383	0.648990	-0.707309	-0.120292	0.705487	-0.709939	-0.200323	0.295580	-0.703282	-0.223118	0.262307	-0.701561	-0.168928	0.234253	-0.686237	-0.151994	0.275008	-0.690708	-0.364689	0.065745	-0.647588	-0.217078	0.030582	-0.704078	-0.178405	0.037079	-0.638992	-0.151164	0.026154	-0.635744	
885	4.4250	-0.000000	0.000000	-0.000000	-0.200651	1.325209	-0.728597	-0.217851	1.305001	-0.379349	-0.142710	1.275727	-0.552253	-0.135523	0.897185	-0.419779	-0.119710	0.890121	-0.649221	-0.202781	0.944791	-0.401244	-0.182258	0.925786	-0.688649	-0.294249	0.920693	-0.495830	-0.289193	0.915232	-0.601076	-0.293288	0.929588	-0.545729	-0.215669	0.692645	-0.376525	-0.190788	0.638565	-0.375496	-0.132126	0.663454	-0.362775	-0.150517	0.721990	-0.363435	-0.199911	0.335025	-0.375955	-0.223648	0.299488	-0.383543	-0.169964	0.274281	-0.397043	-0.151265	0.309891	-0.393266	-0.365709	0.087704	-0.458983	-0.228898	0.028923	-0.393670	-0.189855	0.037143	-0.463556	-0.161162	0.027748	-0.458416	-0.186990	0.676630	-0.712383	-0.156429	0.623227	-0.709322	-0.097982	0.650325	-0.706856	-0.119793	0.706848	-0.709672	-0.200260	0.296882	-0.702946	-0.223026	0.263570	-0.701281	-0.168858	0.235584	-0.685797	-0.151958	0.276357	-0.690211	-0.364347	0.066893	-0.647706	-0.216970	0.030742	-0.703857	-0.178353	0.037058	-0.638926	-0.151154	0.026114	-0.635712	
